/* XPM */
static const int xpm_generic_first_color = 6;
static const int xpm_generic_second_color = 7;
static const int xpm_generic_column = 5;
static const char* xpm_generic[]={
"32 32 7 1",
". c None",
"# c #000000",
"a c #c0c0c0",
"b c #808080",
"c c #808000",
"d c #0000ff",
"e c #0000ff",
"................................",
"................................",
"................................",
"................................",
"................................",
"................................",
"................................",
"....#########################...",
"...#aaaaaaaaaaaaaaaaaaaaaaaa##..",
"..#aaaaaaaaaaaaaaaaaaaaaaaaaa##.",
"..##aaaaaaaaaaaaaaaaaaaaaaaaa##.",
"..###########################b##",
"..##........................bb##",
"..##........................bb##",
"..##..aaaaaaaaaaaaaaaaaaaaaabb##",
"..##..aaabbbbbaaaaabbbbbaaaabb##",
"..##..aac.....baaac.....baaabb##",
"..##..ac..ddd..bac..eee..baabb##",
"..##..ac.ddddd.bac.eeeee.baabb##",
"..##..ac.ddddd.bac.eeeee.baabb##",
"..##..ac.ddddd.bac.eeeee.baabb##",
"..##..ac..ddd..bac..eee..baabb##",
"..##..aac.....baaac.....baaabb##",
"..##..aaacccccaaaaacccccaaaabb##",
"..##..aaaaaaaaaaaaaaaaaaaaaabb##",
"..##..aaaaaaaaaaaaaaaaaaaaaabb##",
"..##bbbbbbbbbbbbbbbbbbbbbbbbbbb.",
"....bbbbbbbbbbbbbbbbbbbbbbbbb#..",
".....########################...",
"......######################....",
"................................",
"................................"};
