<?xml version="1.0" encoding="UTF-8" standalone="no"?>
<!-- Created with Inkscape (http://www.inkscape.org/) -->

<svg
   xmlns:dc="http://purl.org/dc/elements/1.1/"
   xmlns:cc="http://creativecommons.org/ns#"
   xmlns:rdf="http://www.w3.org/1999/02/22-rdf-syntax-ns#"
   xmlns:svg="http://www.w3.org/2000/svg"
   xmlns="http://www.w3.org/2000/svg"
   xmlns:sodipodi="http://sodipodi.sourceforge.net/DTD/sodipodi-0.dtd"
   xmlns:inkscape="http://www.inkscape.org/namespaces/inkscape"
   id="svg2"
   version="1.1"
   inkscape:version="0.48.4 r9939"
   width="50.420662"
   height="53.698681"
   xml:space="preserve"
   sodipodi:docname="bareos.svg"><metadata
     id="metadata8"><rdf:RDF><cc:Work
         rdf:about=""><dc:format>image/svg+xml</dc:format><dc:type
           rdf:resource="http://purl.org/dc/dcmitype/StillImage" /><dc:title></dc:title></cc:Work></rdf:RDF></metadata><defs
     id="defs6"><clipPath
       clipPathUnits="userSpaceOnUse"
       id="clipPath18"><path
         d="m 0,0 14668.8,0 0,992 L 0,992 0,0 z"
         id="path20"
         inkscape:connector-curvature="0" /></clipPath></defs><sodipodi:namedview
     pagecolor="#ffffff"
     bordercolor="#666666"
     borderopacity="1"
     objecttolerance="10"
     gridtolerance="10"
     guidetolerance="10"
     inkscape:pageopacity="0"
     inkscape:pageshadow="2"
     inkscape:window-width="1120"
     inkscape:window-height="981"
     id="namedview4"
     showgrid="false"
     inkscape:zoom="0.51228082"
     inkscape:cx="78.270095"
     inkscape:cy="93.158447"
     inkscape:window-x="639"
     inkscape:window-y="12"
     inkscape:window-maximized="0"
     inkscape:current-layer="g10"
     fit-margin-top="0"
     fit-margin-left="0"
     fit-margin-right="0"
     fit-margin-bottom="0" /><g
     id="g10"
     inkscape:groupmode="layer"
     inkscape:label="ink_ext_XXXXXX"
     transform="matrix(1.25,0,0,-1.25,-43.65505,91.529899)"><path
       inkscape:connector-curvature="0"
       id="path22"
       style="fill:none;stroke:#ffffff;stroke-width:1.00000072;stroke-linecap:butt;stroke-linejoin:miter;stroke-miterlimit:10;stroke-opacity:1;stroke-dasharray:none"
       d="m 1314.2908,125.40286 41.4164,-71.924102 27.7187,48.000122 -52.7647,0" /><path
       inkscape:connector-curvature="0"
       id="path24"
       style="fill:none;stroke:#ffffff;stroke-width:1.00000072;stroke-linecap:butt;stroke-linejoin:miter;stroke-miterlimit:10;stroke-opacity:1;stroke-dasharray:none"
       d="m 1433.4316,29.479051 -41.4379,71.923639 -27.7079,-48.000126 52.7646,0" /><path
       inkscape:connector-curvature="0"
       id="path26"
       style="fill:none;stroke:#ffffff;stroke-width:1.00000072;stroke-linecap:butt;stroke-linejoin:miter;stroke-miterlimit:10;stroke-opacity:1;stroke-dasharray:none"
       d="m 1583.9015,101.40226 -28.5054,4.3e-4 27.7187,-48.000126 -52.7539,0" /><path
       inkscape:connector-curvature="0"
       id="path28"
       style="fill:none;stroke:#ffffff;stroke-width:1.00000072;stroke-linecap:butt;stroke-linejoin:miter;stroke-miterlimit:10;stroke-opacity:1;stroke-dasharray:none"
       d="m 1488.1039,101.47684 27.6001,-47.999806 27.7079,47.999806 -55.308,0 z" /><path
       inkscape:connector-curvature="0"
       id="path30"
       style="fill:none;stroke:#ffffff;stroke-width:1.00000072;stroke-linecap:butt;stroke-linejoin:miter;stroke-miterlimit:10;stroke-opacity:1;stroke-dasharray:none"
       d="m 1455.7833,73.402922 7.447,0 24.8412,0.08923 -16.0794,27.910538 -27.7079,-48.00013 52.7647,0" /><path
       inkscape:connector-curvature="0"
       id="path32"
       style="fill:none;stroke:#ffffff;stroke-width:1.00000072;stroke-linecap:butt;stroke-linejoin:miter;stroke-miterlimit:10;stroke-opacity:1;stroke-dasharray:none"
       d="m 1431.9983,53.477896 -27.7079,48.000124 55.7607,0" /><path
       inkscape:connector-curvature="0"
       id="path34"
       style="fill:none;stroke:#231f20;stroke-width:1.00000072;stroke-linecap:butt;stroke-linejoin:miter;stroke-miterlimit:10;stroke-opacity:1;stroke-dasharray:none"
       d="m 3.1056999,18.703212 0,0 z" /><g
       id="g3065"
       transform="translate(-659.88504,1.1475502)"><path
         d="m 714.98488,29.637765 c -1.73619,0.532066 -19.67575,6.209873 -19.67575,13.479782 l 0,28.459088 39.33642,0 0,-28.459088 c 0,-7.893364 -17.91909,-13.002787 -19.66067,-13.479782"
         style="fill:#127bca;fill-opacity:1;fill-rule:nonzero;stroke:none"
         id="path36"
         inkscape:connector-curvature="0" /><path
         d="m 735.14561,72.076369 -40.33653,0 c 0,0 0,-20.891516 0,-28.958822 0,-8.066444 20.16826,-14.000122 20.16826,-14.000122 0,0 20.16827,5.259786 20.16827,14.000122 0,8.741198 0,28.958822 0,28.958822 l 0,0 z m -1.00012,-0.999792 0,-27.95903 c 0,-6.425415 -13.57052,-11.457028 -19.15306,-12.961511 -5.58793,1.687263 -19.18324,7.053935 -19.18324,12.961511 l 0,27.95903 38.3363,0"
         style="fill:#127bca;fill-opacity:1;fill-rule:nonzero;stroke:none"
         id="path38"
         inkscape:connector-curvature="0" /><path
         d="m 719.81195,47.119407 c 1.93772,0 2.34186,0.404572 2.34186,2.312442 l 0,3.843976 c 0,1.909164 -0.40414,2.312443 -2.31276,2.312443 l -11.5897,0 0,-8.468861 11.5606,0 z m -15.40479,18.12234 3.84419,0 0,-6.184654 11.96474,0 c 2.16835,0 3.44113,-0.405327 4.424,-1.386689 0.98287,-0.954313 1.35791,-2.227843 1.35791,-4.394579 l 0,-3.843976 c 0,-2.196265 -0.40522,-3.441128 -1.35791,-4.393392 -0.69512,-0.694153 -1.50448,-1.097432 -2.28475,-1.214903 -0.75116,-0.08503 -2.65871,-0.171787 -6.81975,-0.171787 l -11.12843,0 0,21.58998"
         style="fill:#ffffff;fill-opacity:1;fill-rule:nonzero;stroke:none"
         id="path40"
         inkscape:connector-curvature="0" /><path
         d="m 733.38463,43.64584 c 0,-7.977533 -18.40729,-12.778407 -18.40729,-12.778407 0,0 -18.40729,5.415061 -18.40729,12.778407 0,7.362591 0,26.430838 0,26.430838 l 36.81458,0 c 0,0 0,-18.453197 0,-26.430838 z"
         style="fill:none;stroke:#ffffff;stroke-width:0.50000036;stroke-linecap:butt;stroke-linejoin:miter;stroke-miterlimit:10;stroke-opacity:1;stroke-dasharray:none"
         id="path42"
         inkscape:connector-curvature="0" /><path
         d="m 733.38463,43.64584 c 0,-7.977533 -18.40729,-12.778407 -18.40729,-12.778407 0,0 -18.40729,5.415061 -18.40729,12.778407 0,7.362591 0,26.430838 0,26.430838 l 36.81458,0 c 0,0 0,-18.453197 0,-26.430838 z"
         style="fill:none;stroke:#ffffff;stroke-width:0.50000036;stroke-linecap:butt;stroke-linejoin:miter;stroke-miterlimit:10;stroke-opacity:1;stroke-dasharray:none"
         id="path44"
         inkscape:connector-curvature="0" /><path
         d="m 733.38463,70.076678 -36.81458,0 c 0,0 0,-19.068247 0,-26.430838 0,-7.363346 18.40729,-12.778407 18.40729,-12.778407 0,0 18.40729,4.800874 18.40729,12.778407 0,7.977641 0,26.430838 0,26.430838 l 0,0 z m -1.00012,-1.000223 0,-25.430615 c 0,-5.800235 -12.2999,-10.36369 -17.39208,-11.739387 -5.09757,1.543712 -17.42226,6.412805 -17.42226,11.739387 l 0,25.430615 34.81434,0"
         style="fill:#ffffff;fill-opacity:1;fill-rule:nonzero;stroke:none"
         id="path46"
         inkscape:connector-curvature="0" /></g></g></svg>