<?xml version="1.0" encoding="UTF-8" standalone="no"?>
<!-- Created with Inkscape (http://www.inkscape.org/) -->

<svg
   xmlns:dc="http://purl.org/dc/elements/1.1/"
   xmlns:cc="http://creativecommons.org/ns#"
   xmlns:rdf="http://www.w3.org/1999/02/22-rdf-syntax-ns#"
   xmlns:svg="http://www.w3.org/2000/svg"
   xmlns="http://www.w3.org/2000/svg"
   version="1.1"
   width="3056.25"
   height="960"
   id="svg2"
   xml:space="preserve"><metadata
     id="metadata8"><rdf:RDF><cc:Work
         rdf:about=""><dc:format>image/svg+xml</dc:format><dc:type
           rdf:resource="http://purl.org/dc/dcmitype/StillImage" /><dc:title></dc:title></cc:Work></rdf:RDF></metadata><defs
     id="defs6" /><g
     transform="matrix(1.25,0,0,-1.25,0,960)"
     id="g10"><g
       transform="scale(0.166667,0.166667)"
       id="g12"><path
         d="m 14188.5,4251.68 -9890.15,0 0,331.74 -4277.7719,0 0,-3071.32 C 20.5781,656.516 2159.53,27.4023 2159.53,27.4023 c 0,0 2138.82,557.7427 2138.82,1484.6977 l 0,70.41 9892.95,0 c 455.2,0 456.9,440.17 456.9,440.17 l 0,1795.97 c 0,0 -7.4,433.03 -459.7,433.03 z"
         id="path14"
         style="fill:#0075bd;fill-opacity:1;fill-rule:nonzero;stroke:none" /><path
         d="m 14188.5,4251.68 -9890.15,0 0,331.74 -4277.7719,0 0,-3071.32 C 20.5781,656.516 2159.53,27.4023 2159.53,27.4023 c 0,0 2138.82,557.7427 2138.82,1484.6977 l 0,70.41 9892.95,0 c 455.2,0 456.9,440.17 456.9,440.17 l 0,1795.97 c 0,0 -7.4,433.03 -459.7,433.03 z"
         id="path16"
         style="fill:none;stroke:#ffffff;stroke-width:41.14810181;stroke-linecap:butt;stroke-linejoin:miter;stroke-miterlimit:4;stroke-opacity:1;stroke-dasharray:none" /><path
         d="m 4605.8,2469.29 990.77,0 c 135.94,0 215.37,25.4 277.07,86.79 61.74,61.73 85.18,139.52 85.18,275.5 l 0,240.78 c 0,135.98 -23.44,213.77 -85.18,275.18 -61.7,61.73 -141.13,87.11 -277.07,87.11 l -858.35,0 0,363.92 -132.42,0 0,-1329.28 z m 132.42,121.19 0,722.67 821.98,0 c 217.33,0 266.55,-48.86 266.55,-266.18 l 0,-190.01 c 0,-217.28 -49.22,-266.48 -266.55,-266.48 l -821.98,0 z"
         id="path18"
         style="fill:#ffffff;fill-opacity:1;fill-rule:evenodd;stroke:none" /><path
         d="m 7626.4,2469.29 0,965.36 -990.77,0 c -136.03,0 -215.7,-25.38 -277.18,-87.11 -61.71,-61.41 -85.17,-139.2 -85.17,-275.18 l 0,-240.78 c 0,-135.98 23.46,-213.77 85.17,-275.5 61.48,-61.39 141.15,-86.79 277.18,-86.79 l 990.77,0 z m -132.49,121.19 -821.98,0 c -217.33,0 -266.48,49.2 -266.48,266.48 l 0,190.01 c 0,217.32 49.15,266.18 266.48,266.18 l 821.98,0 0,-722.67 z"
         id="path20"
         style="fill:#ffffff;fill-opacity:1;fill-rule:evenodd;stroke:none" /><path
         d="m 8998.36,3144.68 c -10.62,101.61 -32.5,152.4 -83.27,202.86 -63.38,61.73 -143.04,87.11 -277.11,87.11 l -675.39,0 0,-965.36 132.07,0 0,843.86 507.28,0 c 193.57,0 251.74,-41.48 262.69,-193.54 l 133.73,25.07 z"
         id="path22"
         style="fill:#ffffff;fill-opacity:1;fill-rule:evenodd;stroke:none" /><path
         d="m 10372.7,2782.71 c -12.6,-150.44 -68.8,-192.23 -264.2,-192.23 l -554.23,0 c -217.33,0 -266.55,49.2 -266.55,264.57 l 0,59.78 1217.08,0 0,157.53 c 0,148.52 -19.9,213.77 -83.2,275.18 -65.3,63.65 -141.1,87.11 -277.2,87.11 l -626.5,0 c -134.06,0 -215.7,-25.38 -277.1,-87.11 -61.71,-61.41 -85.17,-139.2 -85.17,-275.18 l 0,-240.78 c 0,-135.98 23.46,-213.77 85.17,-275.5 63.31,-61.39 143.04,-86.79 277.1,-86.79 l 626.5,0 c 136.1,0 213.8,25.4 277.2,86.79 50.8,50.78 72.6,101.57 83.2,202.85 l -132.1,23.78 z m 5.4,253.32 -1090.38,0 0,12.86 c 0,215.4 49.22,264.26 266.55,264.26 l 557.73,0 c 217.3,0 266.1,-48.86 266.1,-264.26 l 0,-12.86 z"
         id="path24"
         style="fill:#ffffff;fill-opacity:1;fill-rule:evenodd;stroke:none" /><path
         d="m 12172.5,3072.36 c 0,135.98 -23.8,213.77 -85.1,275.18 -61.8,61.73 -141.5,87.11 -277.1,87.11 l -628.5,0 c -136,0 -215.7,-25.38 -277.1,-87.11 -61.8,-61.41 -85.2,-139.2 -85.2,-275.18 l 0,-240.78 c 0,-135.98 23.4,-213.77 85.2,-275.5 61.4,-61.39 141.1,-86.79 277.1,-86.79 l 628.5,0 c 135.6,0 215.3,25.4 277.1,86.79 61.3,61.73 85.1,139.52 85.1,275.5 l 0,240.78 z m -398.6,240.79 c 217.3,0 266.2,-48.86 266.2,-266.18 l 0,-190.01 c 0,-217.28 -48.9,-266.48 -266.2,-266.48 l -555.8,0 c -217.3,0 -266.5,49.2 -266.5,266.48 l 0,190.01 c 0,217.32 49.2,266.18 266.5,266.18 l 555.8,0 z"
         id="path26"
         style="fill:#ffffff;fill-opacity:1;fill-rule:evenodd;stroke:none" /><path
         d="m 13830.6,3144.68 c -27,210.26 -126.6,289.97 -360.3,289.97 l -623,0 c -157.5,0 -217.3,-14.46 -277.1,-63.32 -54.3,-43.72 -81.3,-114.12 -81.3,-208.31 0,-94.2 27,-164.91 81.3,-208.32 59.8,-48.84 119.6,-63.33 277.1,-63.33 l 592.4,0 c 133.8,0 177.5,-5.46 213.5,-30.86 30.9,-19.93 48.9,-63.33 48.9,-119.58 0,-56.25 -18,-97.74 -48.9,-119.58 -36,-23.49 -86.8,-30.87 -213.5,-30.87 l -556.1,0 c -193.8,0 -246.3,38.25 -264.5,193.85 l -132.2,-25.4 c 27.3,-209.93 127,-289.64 360.4,-289.64 l 628.5,0 c 157.5,0 217.3,14.46 277.1,63.32 54.3,43.41 81.6,114.12 81.6,208.32 0,94.19 -27.3,164.93 -81.6,210.23 -59.8,48.87 -115.7,61.41 -277.1,61.41 l -592.2,0 c -126.6,0 -179.3,7.4 -213.8,30.86 -30.8,19.93 -48.8,63.34 -48.8,119.59 0,55.94 18,99.65 48.8,119.59 34.5,23.47 87.2,30.54 213.8,30.54 l 550.7,0 c 193.6,0 246.2,-37.94 264.2,-191.93 l 132.1,23.46 z"
         id="path28"
         style="fill:#ffffff;fill-opacity:1;fill-rule:evenodd;stroke:none" /><path
         d="m 4699.87,2118.24 c -52.51,0 -64.45,-11.88 -64.45,-64.45 l 0,-45.99 c 0,-52.54 11.94,-64.36 64.45,-64.36 l 134.47,0 c 52.59,0 64.36,11.82 64.36,64.36 l 0,45.99 c 0,52.57 -11.77,64.45 -64.36,64.45 l -134.47,0 z m 230.75,-116.53 c 0,-32.88 -5.51,-51.68 -20.49,-66.61 -14.9,-14.89 -34.24,-21 -67.08,-21 l -151.92,0 c -32.9,0 -52.17,6.11 -66.99,21 -14.97,14.93 -20.64,33.73 -20.64,66.61 l 0,58.19 c 0,32.87 5.67,51.75 20.64,66.62 14.82,14.87 34.09,20.97 66.99,20.97 l 151.92,0 c 32.84,0 52.18,-6.1 67.08,-20.97 14.98,-14.87 20.49,-33.75 20.49,-66.62 l 0,-58.19 z"
         id="path30"
         style="fill:#ffffff;fill-opacity:1;fill-rule:nonzero;stroke:none" /><path
         d="m 5041.14,1943.44 198.83,0 c 52.5,0 64.36,11.82 64.36,64.36 l 0,45.99 c 0,52.57 -11.86,64.45 -64.36,64.45 l -198.83,0 0,-174.8 z m 207.64,204.05 c 32.84,0 52.1,-6.1 66.99,-20.97 14.9,-14.87 20.58,-33.75 20.58,-66.62 l 0,-58.19 c 0,-32.88 -5.68,-51.68 -20.58,-66.61 -14.89,-14.89 -34.15,-21 -66.99,-21 l -207.64,0 0,-87.58 -32.01,0 0,320.97 239.65,0 z"
         id="path32"
         style="fill:#ffffff;fill-opacity:1;fill-rule:nonzero;stroke:none" /><path
         d="m 5707.73,2054.28 c 0,52.08 -11.84,63.96 -64.26,63.96 l -135.05,0 c -52.5,0 -64.26,-11.88 -64.26,-63.96 l 0,-3.14 263.57,0 0,3.14 z m 30.71,-70.1 c -2.63,-24.5 -7.9,-36.8 -20.16,-49.08 -15.3,-14.89 -34.15,-21 -66.98,-21 l -151.6,0 c -32.43,0 -51.6,6.11 -67.07,21 -14.82,14.93 -20.49,33.73 -20.49,66.61 l 0,58.19 c 0,32.87 5.67,51.75 20.49,66.62 14.9,14.87 34.64,20.97 67.07,20.97 l 151.6,0 c 32.83,0 51.18,-5.63 66.98,-20.97 15.31,-14.87 20.16,-30.62 20.16,-66.62 l 0,-38.1 -294.28,0 0,-14.47 c 0,-52.07 11.76,-63.89 64.26,-63.89 l 134.06,0 c 47.32,0 61.06,10.06 64.04,46.39 l 31.92,-5.65 z"
         id="path34"
         style="fill:#ffffff;fill-opacity:1;fill-rule:nonzero;stroke:none" /><path
         d="m 6112.05,2053.79 c 0,52.57 -11.76,64.45 -64.33,64.45 l -198.92,0 0,-204.14 -32.01,0 0,233.39 239.65,0 c 32.83,0 52.1,-6.1 66.98,-20.97 14.97,-14.87 20.65,-33.75 20.65,-66.62 l 0,-145.8 -32.02,0 0,139.69 z"
         id="path36"
         style="fill:#ffffff;fill-opacity:1;fill-rule:nonzero;stroke:none" /><path
         d="m 6645.42,2071.79 c -4.36,37.22 -17.11,46.45 -63.94,46.45 l -133.14,0 c -30.64,0 -43.29,-1.85 -51.68,-7.47 -7.34,-4.84 -11.79,-15.36 -11.79,-28.93 0,-13.59 4.45,-24.12 11.79,-28.95 8.39,-5.62 21.04,-7.37 51.68,-7.37 l 143.27,0 c 38.93,0 52.5,-3.15 66.99,-14.89 13.17,-10.99 19.66,-28.03 19.66,-50.86 0,-22.73 -6.49,-39.87 -19.66,-50.32 -14.49,-11.88 -28.97,-15.35 -66.99,-15.35 l -151.99,0 c -56.63,0 -80.58,19.29 -87.17,70.08 l 31.92,6.12 c 4.46,-37.69 17.14,-46.86 63.97,-46.86 l 134.55,0 c 30.52,0 42.87,1.76 51.59,7.48 7.5,5.22 12.02,15.26 12.02,28.85 0,13.59 -4.52,24.12 -12.02,28.92 -8.72,6.12 -19.18,7.41 -51.59,7.41 l -143.27,0 c -38.11,0 -52.6,3.54 -67.01,15.35 -13.17,10.52 -19.74,27.63 -19.74,50.39 0,22.83 6.57,39.84 19.74,50.39 14.41,11.82 28.9,15.26 67.01,15.26 l 150.68,0 c 56.43,0 80.56,-19.19 87.07,-70.08 l -31.95,-5.62 z"
         id="path38"
         style="fill:#ffffff;fill-opacity:1;fill-rule:nonzero;stroke:none" /><path
         d="m 6850.5,2118.24 c -52.66,0 -64.43,-11.88 -64.43,-64.45 l 0,-45.99 c 0,-52.54 11.77,-64.36 64.43,-64.36 l 134.48,0 c 52.5,0 64.37,11.82 64.37,64.36 l 0,45.99 c 0,52.57 -11.87,64.45 -64.37,64.45 l -134.48,0 z m 230.77,-116.53 c 0,-32.88 -5.67,-51.68 -20.49,-66.61 -14.98,-14.89 -34.15,-21 -67.15,-21 l -151.85,0 c -33,0 -52.17,6.11 -67.05,21 -15,14.93 -20.58,33.73 -20.58,66.61 l 0,58.19 c 0,32.87 5.58,51.75 20.58,66.62 14.88,14.87 34.05,20.97 67.05,20.97 l 151.85,0 c 33,0 52.17,-6.1 67.15,-20.97 14.82,-14.87 20.49,-33.75 20.49,-66.62 l 0,-58.19 z"
         id="path40"
         style="fill:#ffffff;fill-opacity:1;fill-rule:nonzero;stroke:none" /><path
         d="m 7190.39,2007.8 c 0,-52.54 11.77,-64.36 64.36,-64.36 l 198.91,0 0,204.05 31.93,0 0,-233.39 -239.48,0 c -32.91,0 -52.18,6.11 -67.06,21 -14.75,14.93 -20.58,33.73 -20.58,66.61 l 0,145.78 31.92,0 0,-139.69 z"
         id="path42"
         style="fill:#ffffff;fill-opacity:1;fill-rule:nonzero;stroke:none" /><path
         d="m 7784.91,2071.3 c -2.81,36.81 -16.78,46.94 -63.61,46.94 l -122.63,0 0,-204.14 -31.94,0 0,233.39 163.36,0 c 32.34,0 51.61,-6.1 67.07,-20.97 12.2,-12.29 17.37,-24.52 20,-49.11 l -32.25,-6.11 z"
         id="path44"
         style="fill:#ffffff;fill-opacity:1;fill-rule:nonzero;stroke:none" /><path
         d="m 8181.4,1984.18 c -2.63,-24.5 -7.9,-36.8 -20.16,-49.08 -15.39,-14.89 -34.24,-21 -67.08,-21 l -151.5,0 c -32.93,0 -52.1,6.11 -66.98,21 -14.98,14.93 -20.57,33.73 -20.57,66.61 l 0,58.19 c 0,32.87 5.59,51.75 20.57,66.62 14.88,14.87 34.05,20.97 66.98,20.97 l 151.5,0 c 32.84,0 51.69,-6.1 67.08,-20.97 12.26,-12.29 17.53,-24.52 20.16,-49.11 l -32.02,-6.11 c -3.04,36.81 -16.61,46.94 -63.84,46.94 l -134.06,0 c -52.69,0 -64.46,-11.88 -64.46,-64.45 l 0,-45.99 c 0,-52.54 11.77,-64.36 64.46,-64.36 l 134.06,0 c 47.23,0 60.8,10.06 63.84,46.86 l 32.02,-6.12 z"
         id="path46"
         style="fill:#ffffff;fill-opacity:1;fill-rule:nonzero;stroke:none" /><path
         d="m 8552.82,2054.28 c 0,52.08 -11.87,63.96 -64.46,63.96 l -134.88,0 c -52.5,0 -64.34,-11.88 -64.34,-63.96 l 0,-3.14 263.68,0 0,3.14 z m 30.7,-70.1 c -2.72,-24.5 -7.92,-36.8 -20.18,-49.08 -15.31,-14.89 -34.15,-21 -67.06,-21 l -151.52,0 c -32.41,0 -51.68,6.11 -66.99,21 -14.9,14.93 -20.57,33.73 -20.57,66.61 l 0,58.19 c 0,32.87 5.67,51.75 20.57,66.62 14.82,14.87 34.58,20.97 66.99,20.97 l 151.52,0 c 32.91,0 51.26,-5.63 67.06,-20.97 15.23,-14.87 20.18,-30.62 20.18,-66.62 l 0,-38.1 -294.38,0 0,-14.47 c 0,-52.07 11.84,-63.89 64.34,-63.89 l 134.06,0 c 47.32,0 60.91,10.06 63.96,46.39 l 32.02,-5.65 z"
         id="path48"
         style="fill:#ffffff;fill-opacity:1;fill-rule:nonzero;stroke:none" /><path
         d="m 9085.76,2118.24 -198.82,0 c -52.69,0 -64.46,-11.88 -64.46,-64.45 l 0,-45.99 c 0,-52.54 11.77,-64.36 64.46,-64.36 l 198.82,0 0,174.8 z M 8878.22,1914.1 c -33.02,0 -52.2,6.11 -67.08,21 -14.91,14.93 -20.57,33.73 -20.57,66.61 l 0,58.19 c 0,32.87 5.66,51.75 20.57,66.62 14.88,14.87 34.06,20.97 67.08,20.97 l 207.54,0 0,88.08 31.92,0 0,-321.47 -239.46,0 z"
         id="path50"
         style="fill:#ffffff;fill-opacity:1;fill-rule:nonzero;stroke:none" /><path
         d="m 9494.44,2118.24 -198.82,0 c -52.67,0 -64.36,-11.88 -64.36,-64.45 l 0,-45.99 c 0,-52.54 11.69,-64.36 64.36,-64.36 l 198.82,0 0,174.8 z M 9286.81,1914.1 c -32.91,0 -52.11,6.11 -66.99,21 -14.97,14.93 -20.58,33.73 -20.58,66.61 l 0,58.19 c 0,32.87 5.61,51.75 20.58,66.62 14.88,14.87 34.08,20.97 66.99,20.97 l 239.64,0 0,-233.39 -239.64,0 z"
         id="path52"
         style="fill:#ffffff;fill-opacity:1;fill-rule:nonzero;stroke:none" /><path
         d="m 9677.56,2206.25 0,-58.76 172.57,0 -5.68,-29.25 -166.89,0 0,-119.18 c 0,-45.56 13.66,-58.26 64.85,-58.26 l 128.29,0 0,-29.35 -137.18,0 c -33.18,0 -52.03,5.72 -67.33,21.07 -14.98,14.86 -20.65,31.5 -20.65,66.54 l 0,119.18 -58.19,0 0,29.25 58.19,0 0,58.76 32.02,0 z"
         id="path54"
         style="fill:#ffffff;fill-opacity:1;fill-rule:nonzero;stroke:none" /><path
         d="m 10212.6,2118.24 -199,0 c -52.54,0 -64.38,-11.88 -64.38,-64.45 l 0,-45.99 c 0,-52.54 11.84,-64.36 64.38,-64.36 l 199,0 0,174.8 z m -207.8,-204.14 c -32.8,0 -52.14,6.11 -66.94,21 -14.89,14.93 -20.49,33.73 -20.49,66.61 l 0,58.19 c 0,32.87 5.6,51.75 20.49,66.62 14.8,14.87 34.14,20.97 66.94,20.97 l 239.6,0 0,-233.39 -239.6,0 z"
         id="path56"
         style="fill:#ffffff;fill-opacity:1;fill-rule:nonzero;stroke:none" /><path
         d="m 10488.8,1943.44 198.8,0 c 52.6,0 64.3,11.82 64.3,64.36 l 0,45.99 c 0,52.57 -11.7,64.45 -64.3,64.45 l -198.8,0 0,-174.8 z m 207.6,204.05 c 32.8,0 52.1,-6.1 67,-20.97 14.9,-14.87 20.5,-33.75 20.5,-66.62 l 0,-58.19 c 0,-32.88 -5.6,-51.68 -20.5,-66.61 -14.9,-14.89 -34.2,-21 -67,-21 l -207.6,0 0,-87.58 -32.1,0 0,320.97 239.7,0 z"
         id="path58"
         style="fill:#ffffff;fill-opacity:1;fill-rule:nonzero;stroke:none" /><path
         d="m 11080.5,2071.3 c -2.6,36.81 -16.7,46.94 -63.5,46.94 l -122.6,0 0,-204.14 -32,0 0,233.39 163.3,0 c 32.5,0 51.6,-6.1 67.1,-20.97 12.3,-12.29 17.5,-24.52 20.2,-49.11 l -32.5,-6.11 z"
         id="path60"
         style="fill:#ffffff;fill-opacity:1;fill-rule:nonzero;stroke:none" /><path
         d="m 11247.1,2118.24 c -52.6,0 -64.3,-11.88 -64.3,-64.45 l 0,-45.99 c 0,-52.54 11.7,-64.36 64.3,-64.36 l 134.5,0 c 52.5,0 64.3,11.82 64.3,64.36 l 0,45.99 c 0,52.57 -11.8,64.45 -64.3,64.45 l -134.5,0 z m 230.9,-116.53 c 0,-32.88 -5.8,-51.68 -20.6,-66.61 -14.9,-14.89 -34.3,-21 -67,-21 l -152,0 c -32.9,0 -52.1,6.11 -67.1,21 -14.9,14.93 -20.6,33.73 -20.6,66.61 l 0,58.19 c 0,32.87 5.7,51.75 20.6,66.62 15,14.87 34.2,20.97 67.1,20.97 l 152,0 c 32.7,0 52.1,-6.1 67,-20.97 14.8,-14.87 20.6,-33.75 20.6,-66.62 l 0,-58.19 z"
         id="path62"
         style="fill:#ffffff;fill-opacity:1;fill-rule:nonzero;stroke:none" /><path
         d="m 11626.4,2206.25 0,-58.76 172.7,0 -5.6,-29.25 -167.1,0 0,-119.18 c 0,-45.56 13.7,-58.26 64.9,-58.26 l 128.3,0 0,-29.35 -137.2,0 c -33.1,0 -52,5.72 -67.3,21.07 -14.9,14.86 -20.5,31.5 -20.5,66.54 l 0,119.18 -58.3,0 0,29.25 58.3,0 0,58.76 31.8,0 z"
         id="path64"
         style="fill:#ffffff;fill-opacity:1;fill-rule:nonzero;stroke:none" /><path
         d="m 12161.8,2054.28 c 0,52.08 -11.7,63.96 -64.3,63.96 l -135,0 c -52.5,0 -64.4,-11.88 -64.4,-63.96 l 0,-3.14 263.7,0 0,3.14 z m 30.7,-70.1 c -2.6,-24.5 -7.9,-36.8 -20.1,-49.08 -15.5,-14.89 -34.3,-21 -67,-21 l -151.6,0 c -32.4,0 -51.7,6.11 -67.1,21 -14.8,14.93 -20.5,33.73 -20.5,66.61 l 0,58.19 c 0,32.87 5.7,51.75 20.5,66.62 14.9,14.87 34.7,20.97 67.1,20.97 l 151.6,0 c 32.7,0 51.2,-5.63 67,-20.97 15.4,-14.87 20.1,-30.62 20.1,-66.62 l 0,-38.1 -294.4,0 0,-14.47 c 0,-52.07 11.9,-63.89 64.4,-63.89 l 134.1,0 c 47.2,0 60.9,10.06 63.9,46.39 l 32,-5.65 z"
         id="path66"
         style="fill:#ffffff;fill-opacity:1;fill-rule:nonzero;stroke:none" /><path
         d="m 12594.5,1984.18 c -2.5,-24.5 -7.9,-36.8 -20,-49.08 -15.4,-14.89 -34.2,-21 -67.2,-21 l -151.4,0 c -32.9,0 -52.1,6.11 -67.1,21 -14.9,14.93 -20.6,33.73 -20.6,66.61 l 0,58.19 c 0,32.87 5.7,51.75 20.6,66.62 15,14.87 34.2,20.97 67.1,20.97 l 151.4,0 c 33,0 51.8,-6.1 67.2,-20.97 12.1,-12.29 17.5,-24.52 20,-49.11 l -32,-6.11 c -3,36.81 -16.5,46.94 -63.8,46.94 l -134.1,0 c -52.6,0 -64.3,-11.88 -64.3,-64.45 l 0,-45.99 c 0,-52.54 11.7,-64.36 64.3,-64.36 l 134.1,0 c 47.3,0 60.8,10.06 63.8,46.86 l 32,-6.12 z"
         id="path68"
         style="fill:#ffffff;fill-opacity:1;fill-rule:nonzero;stroke:none" /><path
         d="m 12743.1,2206.25 0,-58.76 172.6,0 -5.7,-29.25 -166.9,0 0,-119.18 c 0,-45.56 13.6,-58.26 64.7,-58.26 l 128.4,0 0,-29.35 -137.1,0 c -33.3,0 -52.1,5.72 -67.4,21.07 -15,14.86 -20.5,31.5 -20.5,66.54 l 0,119.18 -58.4,0 0,29.25 58.4,0 0,58.76 31.9,0 z"
         id="path70"
         style="fill:#ffffff;fill-opacity:1;fill-rule:nonzero;stroke:none" /><path
         d="m 12985.5,2147.49 32,0 0,-233.39 -32,0 0,233.39 z m 0,88.08 32,0 0,-44.27 -32,0 0,44.27 z"
         id="path72"
         style="fill:#ffffff;fill-opacity:1;fill-rule:nonzero;stroke:none" /><path
         d="m 13192.5,2118.24 c -52.5,0 -64.4,-11.88 -64.4,-64.45 l 0,-45.99 c 0,-52.54 11.9,-64.36 64.4,-64.36 l 134.4,0 c 52.6,0 64.4,11.82 64.4,64.36 l 0,45.99 c 0,52.57 -11.8,64.45 -64.4,64.45 l -134.4,0 z m 230.8,-116.53 c 0,-32.88 -5.7,-51.68 -20.6,-66.61 -14.7,-14.89 -34.3,-21 -67,-21 l -152,0 c -32.8,0 -52.1,6.11 -66.9,21 -15,14.93 -20.7,33.73 -20.7,66.61 l 0,58.19 c 0,32.87 5.7,51.75 20.7,66.62 14.8,14.87 34.1,20.97 66.9,20.97 l 152,0 c 32.7,0 52.3,-6.1 67,-20.97 14.9,-14.87 20.6,-33.75 20.6,-66.62 l 0,-58.19 z"
         id="path74"
         style="fill:#ffffff;fill-opacity:1;fill-rule:nonzero;stroke:none" /><path
         d="m 13797,2053.79 c 0,52.57 -11.9,64.45 -64.5,64.45 l -198.8,0 0,-204.14 -32,0 0,233.39 239.6,0 c 32.9,0 52.1,-6.1 67,-20.97 15.1,-14.87 20.7,-33.75 20.7,-66.62 l 0,-145.8 -32,0 0,139.69 z"
         id="path76"
         style="fill:#ffffff;fill-opacity:1;fill-rule:nonzero;stroke:none" /><path
         d="M 2160.05,580.578 C 2017.08,624.379 540.703,1091.63 540.703,1689.89 l 0,2342.04 3237.277,0 0,-2342.04 c 0,-649.61 -1474.66,-1070.101 -1617.93,-1109.312 z"
         id="path78"
         style="fill:#0075bd;fill-opacity:1;fill-rule:nonzero;stroke:none" /><path
         d="m 3819.12,4073.09 -3319.573,0 0,-2383.2 c 0,-663.84 1659.823,-1152.16 1659.823,-1152.16 0,0 1659.75,432.868 1659.75,1152.16 l 0,2383.2 z m -82.29,-82.29 0,-2300.91 C 3736.83,1161.14 2620.08,747.008 2160.7,623.258 1700.64,762.031 581.84,1203.73 581.84,1689.89 l 0,2300.91 3154.99,0 z"
         id="path80"
         style="fill:#0075bd;fill-opacity:1;fill-rule:nonzero;stroke:none" /><path
         d="m 2557.2,2019.21 c 159.49,0 192.75,33.29 192.75,190.32 l 0,316.33 c 0,157.13 -33.26,190.32 -190.36,190.32 l -953.74,0 0,-696.97 951.35,0 z m -1267.79,1491.4 316.44,0 0,-508.97 984.6,0 c 178.41,0 283.18,-33.34 364.08,-114.11 80.88,-78.54 111.75,-183.33 111.75,-361.67 l 0,-316.33 c 0,-180.75 -33.33,-283.2 -111.75,-361.57 -57.21,-57.14 -123.77,-90.33 -188.06,-99.96 -61.81,-7.01 -218.74,-14.16 -561.26,-14.16 l -915.8,0 0,1776.77 z"
         id="path82"
         style="fill:#ffffff;fill-opacity:1;fill-rule:nonzero;stroke:none" /><path
         d="m 3674.2,1733.37 c 0,-656.53 -1514.83,-1051.612 -1514.83,-1051.612 0,0 -1514.909,445.632 -1514.909,1051.612 l 0,2175.15 3029.739,0 0,-2175.15 z"
         id="path84"
         style="fill:none;stroke:#ffffff;stroke-width:41.14810181;stroke-linecap:butt;stroke-linejoin:miter;stroke-miterlimit:4;stroke-opacity:1;stroke-dasharray:none" /><path
         d="m 3674.2,1733.37 c 0,-656.53 -1514.83,-1051.612 -1514.83,-1051.612 0,0 -1514.909,445.632 -1514.909,1051.612 l 0,2175.15 3029.739,0 0,-2175.15 z"
         id="path86"
         style="fill:none;stroke:#ffffff;stroke-width:41.14810181;stroke-linecap:butt;stroke-linejoin:miter;stroke-miterlimit:4;stroke-opacity:1;stroke-dasharray:none" /><path
         d="m 3674.2,3908.52 -3029.739,0 0,-2175.15 c 0,-605.98 1514.909,-1051.612 1514.909,-1051.612 0,0 1514.83,395.082 1514.83,1051.612 l 0,2175.15 z m -82.29,-82.32 0,-2092.83 C 3591.91,1256.07 2579.67,880.508 2160.7,767.258 1741.05,894.168 726.773,1294.62 726.773,1733.37 l 0,2092.83 2865.137,0 z"
         id="path88"
         style="fill:#ffffff;fill-opacity:1;fill-rule:nonzero;stroke:none" /></g></g></svg>