<?xml version="1.0" encoding="UTF-8" standalone="no"?>
<!-- Created with Inkscape (http://www.inkscape.org/) -->

<svg
   id="svg2"
   version="1.1"
   inkscape:version="1.4.4 (dcaf3e7d9e, 2026-05-05)"
   width="50.420662"
   height="53.698681"
   xml:space="preserve"
   sodipodi:docname="bareos-logo-transparent.svg"
   xmlns:inkscape="http://www.inkscape.org/namespaces/inkscape"
   xmlns:sodipodi="http://sodipodi.sourceforge.net/DTD/sodipodi-0.dtd"
   xmlns="http://www.w3.org/2000/svg"
   xmlns:svg="http://www.w3.org/2000/svg"
   xmlns:rdf="http://www.w3.org/1999/02/22-rdf-syntax-ns#"
   xmlns:cc="http://creativecommons.org/ns#"
   xmlns:dc="http://purl.org/dc/elements/1.1/"><metadata
     id="metadata8"><rdf:RDF><cc:Work
         rdf:about=""><dc:format>image/svg+xml</dc:format><dc:type
           rdf:resource="http://purl.org/dc/dcmitype/StillImage" /></cc:Work></rdf:RDF></metadata><defs
     id="defs6"><clipPath
       clipPathUnits="userSpaceOnUse"
       id="clipPath18"><path
         d="m 0,0 14668.8,0 0,992 L 0,992 0,0 z"
         id="path20"
         inkscape:connector-curvature="0" /></clipPath></defs><sodipodi:namedview
     pagecolor="#ffffff"
     bordercolor="#666666"
     borderopacity="1"
     objecttolerance="10"
     gridtolerance="10"
     guidetolerance="10"
     inkscape:pageopacity="0"
     inkscape:pageshadow="2"
     inkscape:window-width="2476"
     inkscape:window-height="1432"
     id="namedview4"
     showgrid="false"
     inkscape:zoom="18.522381"
     inkscape:cx="26.994369"
     inkscape:cy="31.44844"
     inkscape:window-x="0"
     inkscape:window-y="0"
     inkscape:window-maximized="1"
     inkscape:current-layer="g10"
     fit-margin-top="0"
     fit-margin-left="0"
     fit-margin-right="0"
     fit-margin-bottom="0"
     inkscape:showpageshadow="0"
     inkscape:pagecheckerboard="0"
     inkscape:deskcolor="#d1d1d1"
     inkscape:export-bgcolor="#ffffff00" /><g
     id="g10"
     inkscape:groupmode="layer"
     inkscape:label="ink_ext_XXXXXX"
     transform="matrix(1.25,0,0,-1.25,-43.65505,91.529899)"><g
       id="g3065"
       transform="translate(-659.88504,1.1475502)"
       style="display:inline"><path
         id="path36"
         style="display:inline;fill:#000000;fill-opacity:1;fill-rule:nonzero;stroke:none"
         inkscape:label="Logo"
         d="M 694.80908,72.076369 V 43.116994 c 0,-8.066444 20.16875,-14 20.16875,-14 0,0 20.16719,5.259664 20.16719,14 v 28.959375 z m 1.51094,-1.75 h 37.31406 V 43.646681 c 0,-2.090524 -1.20138,-3.948367 -2.95625,-5.546875 -1.75486,-1.598506 -4.07488,-2.955895 -6.38906,-4.060937 -4.62837,-2.210082 -9.24844,-3.414062 -9.24844,-3.414063 l -0.0672,-0.01719 -0.0672,0.01875 c 0,0 -4.6179,1.359259 -9.24375,3.645312 -2.31291,1.143027 -4.62951,2.516549 -6.38281,4.084376 -1.7533,1.567826 -2.95937,3.345627 -2.95937,5.290624 z m 1.25,-1.25 v -25.43125 c 0,-5.326582 12.3243,-10.19535 17.42187,-11.739063 5.09218,1.375698 17.39219,5.938828 17.39219,11.739063 v 25.43125 z m 6.8375,-3.834375 h 3.84375 v -6.184375 h 11.96406 c 2.16835,0 3.44213,-0.406138 4.425,-1.3875 0.98287,-0.954313 1.35781,-2.227014 1.35781,-4.39375 v -3.84375 c 0,-2.196265 -0.40512,-3.441486 -1.35781,-4.39375 -0.69512,-0.694153 -1.50409,-1.098154 -2.28438,-1.215625 -0.75116,-0.08503 -2.65927,-0.171875 -6.82031,-0.171875 h -11.12812 z m 3.84375,-9.653125 v -8.46875 h 11.56093 c 1.93774,0 2.34219,0.40463 2.34219,2.3125 v 3.84375 c 0,1.909164 -0.40544,2.3125 -2.31406,2.3125 z" /></g></g></svg>
