/* XPM */
static char * bareos_tray_monitor_xpm[] = {
"30 32 109 2",
"  	c None",
". 	c #E0ECF6",
"+ 	c #448DC8",
"@ 	c #267BBF",
"# 	c #297CC0",
"$ 	c #277BC0",
"% 	c #4A90CA",
"& 	c #E7F1F8",
"* 	c #DFEBF6",
"= 	c #4C92CB",
"- 	c #91BCDF",
"; 	c #A8CAE5",
"> 	c #A6C8E5",
", 	c #95BEE0",
"' 	c #5194CC",
") 	c #5497CD",
"! 	c #BDD6EC",
"~ 	c #76ABD7",
"{ 	c #66A1D2",
"] 	c #5E9DD0",
"^ 	c #E4EFF7",
"/ 	c #B1CFE8",
"( 	c #3885C5",
"_ 	c #2077BE",
": 	c #2178BE",
"< 	c #2E80C2",
"[ 	c #3483C3",
"} 	c #1F76BD",
"| 	c #1F77BD",
"1 	c #5798CE",
"2 	c #3B88C6",
"3 	c #3C88C5",
"4 	c #7CAFD9",
"5 	c #B6D2E9",
"6 	c #D1E3F2",
"7 	c #DAE9F4",
"8 	c #AFCEE7",
"9 	c #71A8D5",
"0 	c #3785C4",
"a 	c #B2D0E8",
"b 	c #D8E7F3",
"c 	c #FDFEFE",
"d 	c #F9FBFD",
"e 	c #E5EFF7",
"f 	c #CDE1F0",
"g 	c #90BBDE",
"h 	c #F6FAFC",
"i 	c #EEF4FA",
"j 	c #A3C7E4",
"k 	c #3F8AC7",
"l 	c #64A0D1",
"m 	c #ABCBE6",
"n 	c #F3F7FB",
"o 	c #7EB0D9",
"p 	c #82B3DA",
"q 	c #D8E7F4",
"r 	c #6AA4D3",
"s 	c #F1F7FB",
"t 	c #6CA5D4",
"u 	c #A2C6E3",
"v 	c #EBF3F9",
"w 	c #428CC8",
"x 	c #A4C7E4",
"y 	c #7AAED8",
"z 	c #F0F6FA",
"A 	c #8CB9DD",
"B 	c #3483C4",
"C 	c #2C7EC1",
"D 	c #DFECF6",
"E 	c #FBFDFE",
"F 	c #97BFE0",
"G 	c #C9DDEF",
"H 	c #C8DDEF",
"I 	c #CBDFF0",
"J 	c #C5DBEE",
"K 	c #9AC1E1",
"L 	c #4F94CB",
"M 	c #5899CE",
"N 	c #87B5DC",
"O 	c #83B4DB",
"P 	c #E9F2F9",
"Q 	c #74AAD6",
"R 	c #C7DDEE",
"S 	c #3081C2",
"T 	c #84B4DB",
"U 	c #70A8D5",
"V 	c #D3E4F2",
"W 	c #5A9ACF",
"X 	c #6BA4D3",
"Y 	c #5D9CCF",
"Z 	c #448CC8",
"` 	c #E4EEF7",
" .	c #ADCDE7",
"..	c #488FC9",
"+.	c #ECF3F9",
"@.	c #408BC7",
"#.	c #9CC2E2",
"$.	c #B8D4EA",
"%.	c #93BDDF",
"&.	c #BCD6EB",
"*.	c #629FD1",
"=.	c #77ACD7",
"-.	c #ACCCE7",
";.	c #8BB8DD",
">.	c #CCE0F0",
",.	c #D2E4F2",
"'.	c #8AB7DD",
").	c #78ACD7",
"!.	c #5C9BCF",
". + @ # # # # # # # # # # # # # # # # # # # # # # # $ $ % & ",
"* = - ; > > > > > > > > > > > > > > > > > > > > > > > , ' & ",
"* ) ! ~ { { { { { { { { { { { { { { { { { { { { { { ~ ! ] ^ ",
"* ) / ( _ : : : : : : : _ $ < [ < : } } : : : : : | ( / 1 & ",
". ) / 2 @ @ @ : @ : : 3 4 5 6 7 6 8 9 0 $ : $ $ $ $ 2 a ] ^ ",
"* ) / 3 : @ @ @ @ # ~ b c d . * e d c f { $ : $ : $ 2 8 ] ^ ",
"* ) a 3 @ : @ : # g h i j ] 3 ( k l m n i o $ $ $ : 2 / ] ^ ",
"* ) a ( : @ @ @ p d q ] $ : : : : : # r . s t : : $ 2 / 1 ^ ",
"* ) / 2 @ @ _ ' & . ) t u ( @ @ $ $ $ : l v b w $ } 2 / ] ^ ",
"* ) / 2 : $ $ x c y : > z + _ @ : : $ : : A c A : $ 2 / ] ^ ",
". ) / 2 @ _ w . 6 B : x i = C C < C # $ : k D 6 [ $ ( a ] ^ ",
". ) a ( $ : { E F : @ u c 6 G G H I J K 0 $ m n L : ( a M ^ ",
"* ) / 2 $ _ p c 9 : : u c 6 G G H I b E N } O E r _ 2 / ] e ",
". ) / ( $ : A c { : @ u i = # C C # % P / } ~ c Q _ 2 / M ^ ",
"* ) / 2 @ _ N c t : @ j i + @ @ $ : 3 ^ 5 $ o E t $ 2 / ] e ",
"* ) / 2 _ _ t c A @ : u i w } _ : _ ( ^ 5 $ j h ' } 2 8 M & ",
"D ) a 3 @ : + P R S : u h T t U 9 t A d j 0 V 7 0 : 2 / W e ",
"* ) a ( @ @ # / d X _ u c h d h h h h * 1 y c K $ : 2 / W & ",
"* ) / 2 : @ : Y i V Z + { { { { { l ] w L * ` % : @ 2 / W ` ",
"* ) a 2 : @ @ (  .c J .._ _ _ _ _ } _ ' 6 d o @ $ : 2 a W & ",
"* ) a 2 @ : 0 8 f J d * T + S # S % A & E F C @ @ @ 2 / W & ",
". ' / w : C j c c 6 5 P c P I J f +.c . o # : @ @ : @./ 1 & ",
"i W #.~ # F c c c h U = K 6 P z & I - ..@ : @ @ : : r j W i ",
"  K ) j - h c c c  .C : @ S + % w S @ : @ @ @ : : 2 $.] A c ",
"    { A n c c c 7 + @ @ @ : : @ : @ @ @ : @ @ @ (  .A ' .   ",
"  i  .P c c c h U : @ : @ @ : @ @ : @ @ @ @ : ' 5 A = G     ",
"z $.e c c c c ! = @ : @ @ @ : @ @ @ @ : : ( N ! 9 1 I       ",
"a D c c c c 6 ~ $.%...@ _ @ @ @ @ _ @ ( y $.#.' y .         ",
"&.f c c c z  .y ' A $.#.W C : : # = A $.u W *.$.            ",
"  R R E c J *   G =.) 4 5 / p 4 -.5 ;.W *. .                ",
"    >.R ,.R         6 '.) *.%.F { ) ).!                     ",
"      G  .              ` x ] !.K q                         "};
