<?xml version="1.0" encoding="UTF-8" standalone="no"?>
<!DOCTYPE svg PUBLIC "-//W3C//DTD SVG 1.1//EN"
 "http://www.w3.org/Graphics/SVG/1.1/DTD/svg11.dtd">
<!-- Generated by graphviz version 2.40.1 (20161225.0304)
 -->
<!-- Title: G Pages: 1 -->
<svg width="1650pt" height="260pt"
 viewBox="0.00 0.00 1650.20 260.00" xmlns="http://www.w3.org/2000/svg" xmlns:xlink="http://www.w3.org/1999/xlink">
<g id="graph0" class="graph" transform="scale(1 1) rotate(0) translate(4 256)">
<title>G</title>
<polygon fill="#ffffff" stroke="transparent" points="-4,4 -4,-256 1646.2018,-256 1646.2018,4 -4,4"/>
<!-- start -->
<g id="node1" class="node">
<title>start</title>
<ellipse fill="none" stroke="#000000" cx="94.8916" cy="-120" rx="94.7833" ry="18"/>
<text text-anchor="middle" x="94.8916" y="-116.3" font-family="Times,serif" font-size="14.00" fill="#000000">start Bareos component</text>
</g>
<!-- path_given -->
<g id="node2" class="node">
<title>path_given</title>
<ellipse fill="none" stroke="#000000" cx="556.7682" cy="-158" rx="157.872" ry="18"/>
<text text-anchor="middle" x="556.7682" y="-154.3" font-family="Times,serif" font-size="14.00" fill="#000000">component is started with path parameter</text>
</g>
<!-- start&#45;&gt;path_given -->
<g id="edge1" class="edge">
<title>start&#45;&gt;path_given</title>
<path fill="none" stroke="#000000" d="M182.0384,-127.1698C248.5891,-132.6452 341.5997,-140.2974 418.3058,-146.6083"/>
<polygon fill="#000000" stroke="#000000" points="418.2818,-150.118 428.5352,-147.4499 418.8558,-143.1416 418.2818,-150.118"/>
<text text-anchor="middle" x="288.7832" y="-145.8" font-family="Times,serif" font-size="14.00" fill="#000000">parameter &#45;c $PATH is given</text>
</g>
<!-- path_not_given -->
<g id="node3" class="node">
<title>path_not_given</title>
<ellipse fill="none" stroke="#000000" cx="556.7682" cy="-93" rx="168.97" ry="18"/>
<text text-anchor="middle" x="556.7682" y="-89.3" font-family="Times,serif" font-size="14.00" fill="#000000">component is started without path parameter</text>
</g>
<!-- start&#45;&gt;path_not_given -->
<g id="edge7" class="edge">
<title>start&#45;&gt;path_not_given</title>
<path fill="none" stroke="#000000" d="M172.2292,-109.514C184.119,-108.1611 196.267,-106.9268 207.7832,-106 263.6807,-101.5013 324.7426,-98.5564 379.9403,-96.6297"/>
<polygon fill="#000000" stroke="#000000" points="380.3008,-100.1195 390.1761,-96.2816 380.0629,-93.1236 380.3008,-100.1195"/>
<text text-anchor="middle" x="288.7832" y="-109.8" font-family="Times,serif" font-size="14.00" fill="#000000">parameter &#45;c is not given</text>
</g>
<!-- config_file_path -->
<g id="node4" class="node">
<title>config_file_path</title>
<ellipse fill="none" stroke="#000000" cx="1277.6309" cy="-234" rx="196.0654" ry="18"/>
<text text-anchor="middle" x="1277.6309" y="-230.3" font-family="Times,serif" font-size="14.00" fill="#000000">read configuration from the file specified in $PATH</text>
</g>
<!-- path_given&#45;&gt;config_file_path -->
<g id="edge2" class="edge">
<title>path_given&#45;&gt;config_file_path</title>
<path fill="none" stroke="#000000" d="M637.9927,-173.4885C670.749,-179.3192 708.9553,-185.597 743.7532,-190 863.3021,-205.1267 998.5998,-216.2127 1103.0793,-223.4732"/>
<polygon fill="#000000" stroke="#000000" points="1102.8753,-226.9673 1113.0924,-224.1639 1103.357,-219.9839 1102.8753,-226.9673"/>
<text text-anchor="middle" x="876.2532" y="-219.8" font-family="Times,serif" font-size="14.00" fill="#000000">$PATH is a file</text>
</g>
<!-- config_dir_path -->
<g id="node5" class="node">
<title>config_dir_path</title>
<ellipse fill="none" stroke="#000000" cx="1277.6309" cy="-180" rx="225.56" ry="18"/>
<text text-anchor="middle" x="1277.6309" y="-176.3" font-family="Times,serif" font-size="14.00" fill="#000000">read configuration from $PATH/$COMPONENT.d/*/*.conf</text>
</g>
<!-- path_given&#45;&gt;config_dir_path -->
<g id="edge4" class="edge">
<title>path_given&#45;&gt;config_dir_path</title>
<path fill="none" stroke="#000000" d="M709.6446,-162.6656C810.541,-165.7449 944.3544,-169.8287 1056.7543,-173.2591"/>
<polygon fill="#000000" stroke="#000000" points="1056.7692,-176.7611 1066.8714,-173.5678 1056.9828,-169.7643 1056.7692,-176.7611"/>
<text text-anchor="middle" x="876.2532" y="-174.8" font-family="Times,serif" font-size="14.00" fill="#000000">$PATH/$COMPONENT.d/ is a directory</text>
</g>
<!-- error -->
<g id="node8" class="node">
<title>error</title>
<ellipse fill="none" stroke="#000000" cx="1277.6309" cy="-126" rx="61.99" ry="18"/>
<text text-anchor="middle" x="1277.6309" y="-122.3" font-family="Times,serif" font-size="14.00" fill="#000000">exit with error</text>
</g>
<!-- path_given&#45;&gt;error -->
<g id="edge6" class="edge">
<title>path_given&#45;&gt;error</title>
<path fill="none" stroke="#000000" d="M685.9785,-147.6312C705.3346,-146.2794 725.0624,-145.0144 743.7532,-144 908.9338,-135.0355 1103.1215,-129.8246 1205.6995,-127.4886"/>
<polygon fill="#000000" stroke="#000000" points="1206.0205,-130.9824 1215.9391,-127.2581 1205.8628,-123.9842 1206.0205,-130.9824"/>
<text text-anchor="middle" x="876.2532" y="-147.8" font-family="Times,serif" font-size="14.00" fill="#000000">otherwise</text>
</g>
<!-- config_file_default -->
<g id="node6" class="node">
<title>config_file_default</title>
<ellipse fill="none" stroke="#000000" cx="1277.6309" cy="-72" rx="230.1592" ry="18"/>
<text text-anchor="middle" x="1277.6309" y="-68.3" font-family="Times,serif" font-size="14.00" fill="#000000">read configuration from $CONFIGDIR/$COMPONENT.conf</text>
</g>
<!-- path_not_given&#45;&gt;config_file_default -->
<g id="edge8" class="edge">
<title>path_not_given&#45;&gt;config_file_default</title>
<path fill="none" stroke="#000000" d="M656.5112,-78.4388C684.6579,-74.954 715.3511,-71.7402 743.7532,-70 846.1731,-63.7246 959.852,-63.2508 1055.8983,-64.7344"/>
<polygon fill="#000000" stroke="#000000" points="1055.9721,-68.236 1066.0278,-64.8991 1056.086,-61.2369 1055.9721,-68.236"/>
<text text-anchor="middle" x="876.2532" y="-73.8" font-family="Times,serif" font-size="14.00" fill="#000000">$CONFIGDIR/$COMPONENT.conf exists</text>
</g>
<!-- config_dir_default -->
<g id="node7" class="node">
<title>config_dir_default</title>
<ellipse fill="none" stroke="#000000" cx="1277.6309" cy="-18" rx="250.7555" ry="18"/>
<text text-anchor="middle" x="1277.6309" y="-14.3" font-family="Times,serif" font-size="14.00" fill="#000000">read configuration from $CONFIGDIR/$COMPONENT.d/*/*.conf</text>
</g>
<!-- path_not_given&#45;&gt;config_dir_default -->
<g id="edge10" class="edge">
<title>path_not_given&#45;&gt;config_dir_default</title>
<path fill="none" stroke="#000000" d="M612.6506,-75.9315C649.513,-65.4254 699.0682,-52.7227 743.7532,-46 833.2335,-32.538 931.9895,-25.2685 1019.9787,-21.4275"/>
<polygon fill="#000000" stroke="#000000" points="1020.26,-24.9188 1030.1028,-20.9985 1019.9636,-17.9251 1020.26,-24.9188"/>
<text text-anchor="middle" x="876.2532" y="-49.8" font-family="Times,serif" font-size="14.00" fill="#000000">$CONFIGDIR/$COMPONENT.d/ is a directory</text>
</g>
<!-- path_not_given&#45;&gt;error -->
<g id="edge12" class="edge">
<title>path_not_given&#45;&gt;error</title>
<path fill="none" stroke="#000000" d="M713.3965,-99.7729C800.3948,-103.5745 910.5772,-108.4545 1008.7532,-113 1075.7464,-116.1017 1152.1197,-119.8109 1206.3065,-122.472"/>
<polygon fill="#000000" stroke="#000000" points="1206.3386,-125.9777 1216.4984,-122.973 1206.6824,-118.9861 1206.3386,-125.9777"/>
<text text-anchor="middle" x="876.2532" y="-116.8" font-family="Times,serif" font-size="14.00" fill="#000000">otherwise</text>
</g>
<!-- running -->
<g id="node9" class="node">
<title>running</title>
<ellipse fill="none" stroke="#000000" cx="1603.8552" cy="-125" rx="38.1938" ry="18"/>
<text text-anchor="middle" x="1603.8552" y="-121.3" font-family="Times,serif" font-size="14.00" fill="#000000">running</text>
</g>
<!-- config_file_path&#45;&gt;running -->
<g id="edge3" class="edge">
<title>config_file_path&#45;&gt;running</title>
<path fill="none" stroke="#000000" d="M1465.8807,-228.7855C1487.684,-223.8433 1509.0527,-216.8202 1528.5087,-207 1553.3912,-194.4407 1574.144,-170.0212 1587.5271,-151.083"/>
<polygon fill="#000000" stroke="#000000" points="1590.5894,-152.8039 1593.3182,-142.5664 1584.8009,-148.8677 1590.5894,-152.8039"/>
</g>
<!-- config_dir_path&#45;&gt;running -->
<g id="edge5" class="edge">
<title>config_dir_path&#45;&gt;running</title>
<path fill="none" stroke="#000000" d="M1444.6028,-167.8979C1472.8122,-164.183 1501.6467,-159.3322 1528.5087,-153 1541.0302,-150.0483 1554.3044,-145.5914 1566.1652,-141.0963"/>
<polygon fill="#000000" stroke="#000000" points="1567.7132,-144.249 1575.7484,-137.3436 1565.1607,-137.7309 1567.7132,-144.249"/>
</g>
<!-- config_file_default&#45;&gt;running -->
<g id="edge9" class="edge">
<title>config_file_default&#45;&gt;running</title>
<path fill="none" stroke="#000000" d="M1443.4712,-84.5115C1472.015,-88.1826 1501.2534,-92.9125 1528.5087,-99 1540.6422,-101.71 1553.5394,-105.7202 1565.1698,-109.7842"/>
<polygon fill="#000000" stroke="#000000" points="1564.0024,-113.0838 1574.5968,-113.1833 1566.3768,-106.4988 1564.0024,-113.0838"/>
</g>
<!-- config_dir_default&#45;&gt;running -->
<g id="edge11" class="edge">
<title>config_dir_default&#45;&gt;running</title>
<path fill="none" stroke="#000000" d="M1484.7025,-28.2735C1499.9042,-32.6348 1514.6807,-38.127 1528.5087,-45 1552.9924,-57.1694 1573.6754,-80.783 1587.1406,-99.2148"/>
<polygon fill="#000000" stroke="#000000" points="1584.3646,-101.3517 1592.9815,-107.5161 1590.0895,-97.3236 1584.3646,-101.3517"/>
</g>
</g>
</svg>
