/* XPM */
static char * tray_monitor_xpm[] = {
"22 22 153 2",
"  	c None",
". 	c #354446",
"+ 	c #3D4F51",
"@ 	c #648B90",
"# 	c #536E72",
"$ 	c #1D1D1D",
"% 	c #1E1F1F",
"& 	c #3A4B4D",
"* 	c #61878C",
"= 	c #252A2B",
"- 	c #1D1E1E",
"; 	c #364648",
"> 	c #5C8185",
", 	c #3E4E51",
"' 	c #344345",
") 	c #577C80",
"! 	c #5F7C81",
"~ 	c #1C1C1C",
"{ 	c #1D1D1E",
"] 	c #313F40",
"^ 	c #53787C",
"/ 	c #272B2C",
"( 	c #141414",
"_ 	c #181818",
": 	c #2D3A3C",
"< 	c #4E7276",
"[ 	c #46585C",
"} 	c #0A0A0A",
"| 	c #040404",
"1 	c #342F2F",
"2 	c #171515",
"3 	c #191919",
"4 	c #2B3738",
"5 	c #4B6F72",
"6 	c #6A898F",
"7 	c #4F4B4D",
"8 	c #B8CED9",
"9 	c #A3AAB1",
"0 	c #0A0909",
"a 	c #0F0F0F",
"b 	c #1C1B1B",
"c 	c #283435",
"d 	c #323B3C",
"e 	c #090909",
"f 	c #6B696D",
"g 	c #B6C8D3",
"h 	c #191616",
"i 	c #282222",
"j 	c #222222",
"k 	c #344042",
"l 	c #4F6368",
"m 	c #1A1818",
"n 	c #787E84",
"o 	c #555255",
"p 	c #342E2E",
"q 	c #363636",
"r 	c #2E2E2E",
"s 	c #1F1F1F",
"t 	c #1C1D1D",
"u 	c #455152",
"v 	c #2D3536",
"w 	c #1C1C1D",
"x 	c #151515",
"y 	c #0D0B0B",
"z 	c #433E3E",
"A 	c #3B3A3A",
"B 	c #1E1E1F",
"C 	c #333C3D",
"D 	c #546E71",
"E 	c #3E3E3F",
"F 	c #343638",
"G 	c #272D2F",
"H 	c #302C2C",
"I 	c #888D92",
"J 	c #B8CCD7",
"K 	c #797C81",
"L 	c #2A2A2A",
"M 	c #454F50",
"N 	c #608F95",
"O 	c #536367",
"P 	c #474646",
"Q 	c #797575",
"R 	c #3E4243",
"S 	c #242829",
"T 	c #2C2C2C",
"U 	c #A4ADB4",
"V 	c #979FA6",
"W 	c #2B2B2B",
"X 	c #212424",
"Y 	c #4F5F61",
"Z 	c #6C8B92",
"` 	c #67696A",
" .	c #989292",
"..	c #6C6969",
"+.	c #363C3D",
"@.	c #1F2122",
"#.	c #202020",
"$.	c #585A5D",
"%.	c #9DA6AD",
"&.	c #5D5D60",
"*.	c #2F2F2F",
"=.	c #414C4E",
"-.	c #5A8084",
";.	c #5F777B",
">.	c #717071",
",.	c #999393",
"'.	c #615E5F",
").	c #2F3738",
"!.	c #303030",
"~.	c #323232",
"{.	c #485253",
"].	c #5B6B6E",
"^.	c #7F797A",
"/.	c #948E8E",
"(.	c #545455",
"_.	c #272E2F",
":.	c #353E3F",
"<.	c #577476",
"[.	c #709BA1",
"}.	c #5C6567",
"|.	c #8D8889",
"1.	c #878282",
"2.	c #484B4B",
"3.	c #232828",
"4.	c #475152",
"5.	c #62878C",
"6.	c #636667",
"7.	c #9B9494",
"8.	c #797475",
"9.	c #3C4344",
"0.	c #1F2222",
"a.	c #262B2B",
"b.	c #516465",
"c.	c #597679",
"d.	c #6C6C6D",
"e.	c #9E9A9A",
"f.	c #6B6868",
"g.	c #333A3B",
"h.	c #424D4D",
"i.	c #5C8689",
"j.	c #55696B",
"k.	c #7A7777",
"l.	c #9D9898",
"m.	c #4E5050",
"n.	c #262F2F",
"o.	c #4A5556",
"p.	c #64979A",
"q.	c #566263",
"r.	c #535050",
"s.	c #383D3D",
"t.	c #58797B",
"u.	c #5B8789",
"v.	c #374748",
"            . + @                           ",
"          # $ $ % & *                       ",
"          = $ $ $ $ - ; >                   ",
"        , $ $ $ $ $ $ $ - ' )               ",
"      ! ~ $ $ $ $ $ $ $ $ $ { ] ^           ",
"      / $ ( _ $ $ $ $ $ $ $ $ $ $ : <       ",
"    [ $ } | 1 2 3 $ $ $ $ $ $ $ $ $ $ 4 5   ",
"  6 % 3 | 7 8 9 0 a b $ $ $ $ $ $ $ $ $ $ c ",
"  d $ $ e f 8 g h | i j ~ $ $ $ $ $ $ $ $ k ",
"l $ $ $ _ m n o | | p q r s ~ $ $ $ $ $ t u ",
"v w $ $ $ $ x e | y z q q q A B $ $ $ $ C D ",
"E F G $ $ $ $ $ x H q q q I J K L t $ $ M N ",
"O P Q R S $ $ $ $ $ { T q U 8 V q W $ X Y   ",
"  Z `  ...+.@.$ $ $ $ w #.$.%.&.q *.~ =.-.  ",
"      ;.>.,.'.).{ $ $ $ $ w j !.~.- - {.    ",
"          ].^./.(._.$ $ $ $ $ ~ ~ $ :.<.    ",
"            [.}.|.1.2.3.$ $ $ $ $ $ 4.      ",
"                5.6.7.8.9.0.$ $ $ a.b.      ",
"                    c.d.e.f.g.- $ h.i.      ",
"                        j.k.l.m.n.o.        ",
"                          p.q.r.s.t.        ",
"                              u.v.          "};
